HIERARCHY
ROOT Hips
{
	OFFSET 0.000000 97.167313 0.000000
	CHANNELS 6 Xposition Yposition Zposition Xrotation Yrotation Zrotation
	JOINT Spine
	{
		OFFSET 0.000000 13.784798 0.064400
		CHANNELS 3 Xrotation Yrotation Zrotation
		JOINT Spine1
		{
			OFFSET 0.000000 12.037903 0.404700
			CHANNELS 3 Xrotation Yrotation Zrotation
			JOINT Spine2
			{
				OFFSET 0.000000 17.795601 0.420200
				CHANNELS 3 Xrotation Yrotation Zrotation
				JOINT Neck
				{
					OFFSET 0.000000 39.131302 11.954600
					CHANNELS 3 Xrotation Yrotation Zrotation
					JOINT Head
					{
						OFFSET 0.000000 14.456192 15.627699
						CHANNELS 3 Xrotation Yrotation Zrotation
						JOINT HeadTop_End
						{
							OFFSET 0.000000 15.703506 7.603401
							CHANNELS 3 Xrotation Yrotation Zrotation
							End Site
							{
								OFFSET 0.000000 17.447403 0.000000
							}
						}
					}
				}
				JOINT LeftShoulder
				{
					OFFSET 17.399500 24.608795 1.168800
					CHANNELS 3 Xrotation Yrotation Zrotation
					JOINT LeftArm
					{
						OFFSET 18.980635 5.765305 1.818600
						CHANNELS 3 Xrotation Yrotation Zrotation
						JOINT LeftForeArm
						{
							OFFSET 49.290169 0.000000 0.000000
							CHANNELS 3 Xrotation Yrotation Zrotation
							JOINT LeftHand
							{
								OFFSET 31.562012 0.000000 0.000000
								CHANNELS 3 Xrotation Yrotation Zrotation
								JOINT LeftHandThumb1
								{
									OFFSET 6.133995 -4.388519 7.076070
									CHANNELS 3 Xrotation Yrotation Zrotation
									JOINT LeftHandThumb2
									{
										OFFSET 6.037666 -3.485840 3.485847
										CHANNELS 3 Xrotation Yrotation Zrotation
										JOINT LeftHandThumb3
										{
											OFFSET 6.496506 -3.750763 3.750761
											CHANNELS 3 Xrotation Yrotation Zrotation
											JOINT LeftHandThumb4
											{
												OFFSET 5.616882 -3.242905 3.242910
												CHANNELS 3 Xrotation Yrotation Zrotation
												End Site
												{
													OFFSET -1.254608 7.132141 0.375429
												}
											}
										}
									}
								}
								JOINT LeftHandPinky1
								{
									OFFSET 18.920792 -0.453171 -11.426712
									CHANNELS 3 Xrotation Yrotation Zrotation
									JOINT LeftHandPinky2
									{
										OFFSET 4.919586 0.000000 0.000000
										CHANNELS 3 Xrotation Yrotation Zrotation
										JOINT LeftHandPinky3
										{
											OFFSET 5.233047 0.000000 0.000000
											CHANNELS 3 Xrotation Yrotation Zrotation
											JOINT LeftHandPinky4
											{
												OFFSET 5.571716 0.000000 0.000000
												CHANNELS 3 Xrotation Yrotation Zrotation
												End Site
												{
													OFFSET -3.459808 4.342407 -0.466164
												}
											}
										}
									}
								}
								JOINT LeftHandRing1
								{
									OFFSET 22.726120 -0.094986 -6.500475
									CHANNELS 3 Xrotation Yrotation Zrotation
									JOINT LeftHandRing2
									{
										OFFSET 6.408615 0.000000 0.000000
										CHANNELS 3 Xrotation Yrotation Zrotation
										JOINT LeftHandRing3
										{
											OFFSET 6.150223 0.000000 0.000000
											CHANNELS 3 Xrotation Yrotation Zrotation
											JOINT LeftHandRing4
											{
												OFFSET 6.145386 0.000000 0.000000
												CHANNELS 3 Xrotation Yrotation Zrotation
												End Site
												{
													OFFSET -3.671402 4.923981 -0.202372
												}
											}
										}
									}
								}
								JOINT LeftHandMiddle1
								{
									OFFSET 23.373947 0.000000 0.000001
									CHANNELS 3 Xrotation Yrotation Zrotation
									JOINT LeftHandMiddle2
									{
										OFFSET 6.996567 0.000000 0.000000
										CHANNELS 3 Xrotation Yrotation Zrotation
										JOINT LeftHandMiddle3
										{
											OFFSET 7.015945 0.000000 0.000000
											CHANNELS 3 Xrotation Yrotation Zrotation
											JOINT LeftHandMiddle4
											{
												OFFSET 7.721573 0.000000 0.000000
												CHANNELS 3 Xrotation Yrotation Zrotation
												End Site
												{
													OFFSET -4.651108 6.158463 0.251582
												}
											}
										}
									}
								}
								JOINT LeftHandIndex1
								{
									OFFSET 21.310577 -0.490082 6.209344
									CHANNELS 3 Xrotation Yrotation Zrotation
									JOINT LeftHandIndex2
									{
										OFFSET 7.536453 0.000000 0.000000
										CHANNELS 3 Xrotation Yrotation Zrotation
										JOINT LeftHandIndex3
										{
											OFFSET 7.512344 0.000000 0.000000
											CHANNELS 3 Xrotation Yrotation Zrotation
											JOINT LeftHandIndex4
											{
												OFFSET 10.212402 0.000000 0.000001
												CHANNELS 3 Xrotation Yrotation Zrotation
												End Site
												{
													OFFSET -5.180801 8.690506 1.388433
												}
											}
										}
									}
								}
							}
						}
					}
				}
				JOINT RightShoulder
				{
					OFFSET -17.399500 24.608795 1.168800
					CHANNELS 3 Xrotation Yrotation Zrotation
					JOINT RightArm
					{
						OFFSET -18.980635 5.765305 1.818600
						CHANNELS 3 Xrotation Yrotation Zrotation
						JOINT RightForeArm
						{
							OFFSET -49.290169 0.000000 0.000000
							CHANNELS 3 Xrotation Yrotation Zrotation
							JOINT RightHand
							{
								OFFSET -31.562012 0.000000 0.000000
								CHANNELS 3 Xrotation Yrotation Zrotation
								JOINT RightHandThumb1
								{
									OFFSET -6.133995 -4.388519 7.076070
									CHANNELS 3 Xrotation Yrotation Zrotation
									JOINT RightHandThumb2
									{
										OFFSET -6.037666 -3.485840 3.485847
										CHANNELS 3 Xrotation Yrotation Zrotation
										JOINT RightHandThumb3
										{
											OFFSET -6.496506 -3.750763 3.750761
											CHANNELS 3 Xrotation Yrotation Zrotation
											JOINT RightHandThumb4
											{
												OFFSET -5.616882 -3.242905 3.242910
												CHANNELS 3 Xrotation Yrotation Zrotation
												End Site
												{
													OFFSET 1.254608 7.132141 0.375429
												}
											}
										}
									}
								}
								JOINT RightHandIndex1
								{
									OFFSET -21.310577 -0.490082 6.209344
									CHANNELS 3 Xrotation Yrotation Zrotation
									JOINT RightHandIndex2
									{
										OFFSET -7.536453 0.000000 0.000000
										CHANNELS 3 Xrotation Yrotation Zrotation
										JOINT RightHandIndex3
										{
											OFFSET -7.512344 0.000000 0.000000
											CHANNELS 3 Xrotation Yrotation Zrotation
											JOINT RightHandIndex4
											{
												OFFSET -10.212402 0.000000 0.000001
												CHANNELS 3 Xrotation Yrotation Zrotation
												End Site
												{
													OFFSET 5.180801 8.690506 1.388433
												}
											}
										}
									}
								}
								JOINT RightHandMiddle1
								{
									OFFSET -23.373947 0.000000 0.000001
									CHANNELS 3 Xrotation Yrotation Zrotation
									JOINT RightHandMiddle2
									{
										OFFSET -6.996567 0.000000 0.000000
										CHANNELS 3 Xrotation Yrotation Zrotation
										JOINT RightHandMiddle3
										{
											OFFSET -7.015945 0.000000 0.000000
											CHANNELS 3 Xrotation Yrotation Zrotation
											JOINT RightHandMiddle4
											{
												OFFSET -7.721573 0.000000 0.000000
												CHANNELS 3 Xrotation Yrotation Zrotation
												End Site
												{
													OFFSET 4.651108 6.158463 0.251582
												}
											}
										}
									}
								}
								JOINT RightHandRing1
								{
									OFFSET -22.726120 -0.094986 -6.500475
									CHANNELS 3 Xrotation Yrotation Zrotation
									JOINT RightHandRing2
									{
										OFFSET -6.408615 0.000000 0.000000
										CHANNELS 3 Xrotation Yrotation Zrotation
										JOINT RightHandRing3
										{
											OFFSET -6.150223 0.000000 0.000000
											CHANNELS 3 Xrotation Yrotation Zrotation
											JOINT RightHandRing4
											{
												OFFSET -6.145386 0.000000 0.000000
												CHANNELS 3 Xrotation Yrotation Zrotation
												End Site
												{
													OFFSET 3.671402 4.923981 -0.202372
												}
											}
										}
									}
								}
								JOINT RightHandPinky1
								{
									OFFSET -18.920792 -0.453171 -11.426712
									CHANNELS 3 Xrotation Yrotation Zrotation
									JOINT RightHandPinky2
									{
										OFFSET -4.919586 0.000000 0.000000
										CHANNELS 3 Xrotation Yrotation Zrotation
										JOINT RightHandPinky3
										{
											OFFSET -5.233047 0.000000 0.000000
											CHANNELS 3 Xrotation Yrotation Zrotation
											JOINT RightHandPinky4
											{
												OFFSET -5.571716 0.000000 0.000000
												CHANNELS 3 Xrotation Yrotation Zrotation
												End Site
												{
													OFFSET 3.459808 4.342407 -0.466164
												}
											}
										}
									}
								}
							}
						}
					}
				}
			}
		}
	}
	JOINT LeftUpLeg
	{
		OFFSET 19.899099 -7.885101 -3.429500
		CHANNELS 3 Xrotation Yrotation Zrotation
		JOINT LeftLeg
		{
			OFFSET 1.745560 -36.997807 10.304700
			CHANNELS 3 Xrotation Yrotation Zrotation
			JOINT LeftFoot
			{
				OFFSET -1.745558 -29.803308 -13.615400
				CHANNELS 3 Xrotation Yrotation Zrotation
				JOINT LeftToeBase
				{
					OFFSET 1.181900 -18.539904 15.226099
					CHANNELS 3 Xrotation Yrotation Zrotation
					JOINT LeftToe_End
					{
						OFFSET -0.863701 1.402801 16.534700
						CHANNELS 3 Xrotation Yrotation Zrotation
						End Site
						{
							OFFSET 0.000000 16.616566 0.000000
						}
					}
				}
			}
		}
	}
	JOINT RightUpLeg
	{
		OFFSET -19.899099 -7.885101 -3.429500
		CHANNELS 3 Xrotation Yrotation Zrotation
		JOINT RightLeg
		{
			OFFSET -1.745560 -36.997807 10.304700
			CHANNELS 3 Xrotation Yrotation Zrotation
			JOINT RightFoot
			{
				OFFSET 1.745558 -29.803308 -13.615400
				CHANNELS 3 Xrotation Yrotation Zrotation
				JOINT RightToeBase
				{
					OFFSET -1.181900 -18.539904 15.226099
					CHANNELS 3 Xrotation Yrotation Zrotation
					JOINT RightToe_End
					{
						OFFSET 0.863701 1.402801 16.534700
						CHANNELS 3 Xrotation Yrotation Zrotation
						End Site
						{
							OFFSET 0.000000 16.616566 0.000000
						}
					}
				}
			}
		}
	}
}
MOTION
Frames: 4
Frame Time: 0.033333
-8.532755 109.589691 4.278695 -6.522166 -61.872095 -5.057473 30.080460 6.000752 -4.028062 9.703980 2.449334 -1.089315 9.711575 2.442120 -1.097343 -7.114095 -16.200999 -2.553104 8.218071 34.098309 -11.471529 -0.000001 0.000000 -0.000000 0.302963 5.126600 -6.172884 -27.022081 22.218143 -15.401406 -0.969192 -59.400530 9.227029 -53.251956 -5.311053 2.379896 3.131973 14.216315 -19.086521 1.083710 18.441903 20.543507 1.420112 38.788340 21.436001 0.000000 -0.000000 0.000000 -6.497498 19.493578 -63.820639 10.930009 12.439959 -91.866311 5.624303 12.849649 -61.873850 -0.000001 -0.000003 -0.000003 -0.127254 16.605600 -63.663141 7.055517 8.627825 -74.067466 7.032417 10.043099 -73.182103 -0.000003 -0.000003 -0.000000 3.456851 11.185562 -71.730763 6.555771 9.517368 -73.061673 5.164473 7.559214 -62.819579 0.000005 -0.000000 0.000001 7.357293 6.884741 -66.751555 6.476883 7.446376 -77.523378 4.627884 10.066091 -62.797982 -0.000001 0.000003 0.000002 0.620382 3.819967 -4.640167 -23.769871 -12.175961 -4.575309 0.015464 23.000906 -0.040522 -3.181814 -0.799076 11.998137 -0.512428 3.948890 3.623347 5.409288 -26.719618 -10.884812 -0.286036 -3.993454 -3.634515 -0.000005 -0.000001 0.000002 0.285418 4.699420 -16.641184 0.425542 -2.079391 19.148311 6.888674 -10.605571 21.430258 -0.000003 0.000005 0.000004 0.132802 -2.321997 -6.119817 1.820622 -6.185757 36.554230 0.234397 -1.065911 11.549805 -0.000003 0.000003 -0.000008 -0.277172 -10.915926 3.240058 1.523860 -4.444730 32.396151 0.568372 -3.791670 19.017345 -0.000002 -0.000003 -0.000000 -0.287173 -19.490476 4.634133 2.433997 -5.415096 41.285970 0.716764 -4.493206 22.901783 0.000001 -0.000000 0.000006 -44.467738 13.460854 22.854409 80.091133 -9.446937 0.921226 26.171118 -6.875698 -6.466038 -1.286940 0.003707 0.000117 0.000002 -0.000001 0.000003 -91.249162 -8.863769 0.490546 116.243181 -3.170700 -10.764185 36.602929 3.109882 12.861299 0.172609 -0.002715 -0.000032 0.000001 0.000001 0.000000 
-8.217867 110.277458 15.946440 -5.889278 -61.901431 -7.484950 31.075144 6.343797 -1.560605 10.346994 2.033177 0.039981 10.359263 1.972930 0.055645 -12.175409 -12.753373 -3.955579 9.716624 34.038722 -10.493333 0.000002 -0.000001 -0.000001 2.717550 3.642531 -6.217729 -26.236882 23.561322 -22.247181 -2.550855 -57.831826 8.644776 -51.298153 -9.220753 5.403426 4.431679 12.996657 -18.692582 1.246136 18.803323 20.216511 1.408350 38.867892 21.484051 0.000001 -0.000000 -0.000002 -6.966090 19.389369 -63.330873 10.835090 12.306758 -91.597194 5.576378 12.700941 -61.771384 0.000001 0.000000 -0.000002 -0.476173 16.369692 -63.539583 7.114917 8.654322 -73.797810 7.015085 10.039751 -73.076843 -0.000001 0.000002 0.000003 3.200241 10.973134 -71.383694 6.635216 9.550570 -73.587208 5.002379 7.509992 -61.860497 -0.000002 -0.000001 0.000002 7.418735 6.519559 -66.551451 6.542112 7.467261 -77.988842 4.508848 10.026879 -62.003843 -0.000002 0.000003 -0.000001 3.400390 3.537144 4.999123 -17.892432 -9.692796 -9.844792 0.537759 23.097343 0.024480 -3.005635 -1.109190 13.550153 -1.621037 3.367426 3.365301 5.145594 -25.946967 -10.616797 -0.176403 -4.041775 -3.460201 0.000002 0.000000 0.000001 0.413585 4.975233 -17.665094 0.362964 -2.013580 17.768039 6.322146 -10.454328 19.528650 -0.000001 -0.000003 -0.000001 -0.188470 -2.052811 -8.222514 1.669087 -6.085889 35.281151 0.179138 -0.988729 10.063036 0.000001 0.000002 -0.000004 -1.293289 -10.972094 0.923609 1.374430 -4.413893 30.557023 0.506384 -3.756061 17.516707 0.000001 -0.000001 -0.000003 -2.417459 -19.429600 1.801208 2.180882 -5.344086 38.490312 0.690933 -4.394339 21.240756 0.000002 -0.000000 0.000002 -43.171078 19.820009 21.759451 67.866214 -13.392234 1.259018 32.964016 -8.889357 -11.635412 -1.633608 0.022112 -0.643237 0.000001 -0.000002 0.000003 -101.713859 -15.157855 -0.372036 111.787445 -6.204070 -11.071477 32.635204 1.497975 8.462082 0.140267 -0.002832 -0.058054 -0.000002 0.000001 -0.000002 
-7.167363 109.239639 27.809011 -4.351286 -62.103652 -7.910183 30.961302 6.212653 0.418849 10.995688 1.416262 0.550685 11.008980 1.296684 0.600807 -14.429828 -7.518887 -6.302366 6.235518 33.301229 -8.466463 0.000004 0.000002 -0.000001 4.329505 3.183791 -8.029049 -26.572644 23.680599 -30.672812 3.298807 -54.805165 12.314603 -45.506873 -11.836404 10.462571 7.882472 9.779950 -17.537648 1.679525 19.763280 19.342191 1.376909 39.078883 21.611827 0.000000 0.000001 -0.000001 -8.197838 19.083257 -62.038417 10.589711 11.949665 -90.884546 5.451946 12.305589 -61.499645 0.000003 0.000001 0.000001 -1.396500 15.739286 -63.217321 7.271070 8.727273 -73.082164 6.968888 10.026746 -72.797174 -0.000003 0.000002 0.000003 2.533302 10.396294 -70.464869 6.847953 9.631589 -74.982261 4.585039 7.357370 -59.317188 -0.000001 -0.000002 0.000001 7.593202 5.555643 -66.017152 6.716157 7.517569 -79.224054 4.200849 9.909097 -59.898123 -0.000002 0.000003 0.000001 5.353033 6.512659 12.807309 -10.904204 -8.377704 -14.070130 2.663192 21.718174 0.991294 -4.178699 -0.559083 13.648146 -2.743467 2.433250 3.035851 4.503525 -23.604692 -9.801737 0.304734 -4.707243 -3.175010 -0.000001 0.000000 -0.000002 -0.421577 5.209951 -16.251706 0.334191 -1.812521 17.903077 5.419166 -9.623729 17.580031 -0.000003 -0.000003 -0.000001 -1.530931 -1.434684 -7.734078 1.460797 -5.669692 33.682221 0.117468 -0.807914 9.664123 -0.000006 -0.000004 -0.000004 -3.347881 -10.595555 0.396865 1.173802 -4.173242 28.308341 0.489332 -3.558465 16.501068 -0.000002 -0.000001 -0.000003 -5.339381 -18.600395 0.578890 1.822136 -4.949130 34.712404 0.718638 -3.981874 19.449338 0.000001 -0.000000 0.000002 -42.625411 22.539595 23.443724 53.893130 -17.954040 0.301089 44.218279 -10.335379 -15.196280 -2.139071 0.067201 -1.773875 0.000001 0.000003 -0.000002 -108.426364 -16.220410 -4.504688 113.144638 -7.193590 -10.247401 28.185605 0.773266 9.616791 0.054295 -0.002966 -0.211879 0.000000 0.000000 -0.000001 
-6.377165 106.707443 40.578728 -2.197567 -63.009076 -5.683892 29.737261 4.936784 1.077313 11.375720 1.025121 0.367575 11.388322 0.872053 0.430418 -12.214216 -1.820397 -8.594826 -0.779888 31.906341 -6.939357 0.000002 0.000000 0.000000 4.796129 4.221992 -11.729418 -25.606654 25.469311 -39.558970 11.122689 -53.760791 16.191175 -37.007754 -11.374172 17.356142 12.864788 5.231844 -15.600815 2.308024 21.142364 18.070867 1.331121 39.381208 21.795839 -0.000000 -0.000000 0.000000 -9.932403 18.570198 -60.205146 10.254290 11.428635 -89.865871 5.280348 11.736897 -61.110065 0.000002 -0.000000 -0.000000 -2.702818 14.824183 -62.769357 7.491247 8.838409 -72.055607 6.902860 10.007334 -72.396262 -0.000002 0.000000 0.000005 1.612552 9.536473 -69.152605 7.157590 9.729754 -76.984107 4.022018 7.084914 -55.674317 -0.000001 -0.000001 0.000004 7.872548 4.185588 -65.241851 6.967980 7.576653 -80.995846 3.780734 9.706649 -56.882505 -0.000003 0.000000 -0.000004 5.045727 10.842123 18.038518 -2.367959 -10.250419 -15.259189 4.860374 20.367484 1.798310 -5.378276 -1.557551 12.541067 -3.871638 1.309850 2.610572 3.587309 -20.171297 -8.593613 1.026040 -5.767497 -2.790888 -0.000000 0.000000 -0.000000 -1.836449 5.211518 -13.127501 0.317798 -1.519050 19.107092 4.350901 -8.281986 15.642498 -0.000002 0.000000 -0.000001 -3.511986 -0.780102 -5.391882 1.245711 -5.027610 31.862614 0.048500 -0.554839 10.030317 0.000000 0.000001 0.000001 -6.082495 -10.014990 1.164775 0.966889 -3.779538 25.787770 0.511267 -3.249010 15.832160 -0.000003 -0.000000 -0.000005 -8.764716 -17.273364 0.581854 1.471740 -4.306593 30.270121 0.818756 -3.358396 17.575354 -0.000001 0.000001 -0.000001 -37.518198 23.124046 28.615199 37.228523 -18.789980 -1.958561 53.169573 -11.097420 -19.374795 -2.679005 0.114546 -3.075045 -0.000001 0.000001 -0.000001 -111.245579 -20.196408 0.233249 115.776296 -4.002977 -13.724005 28.628314 -0.937264 19.195381 -0.068775 -0.002169 -0.432482 0.000000 -0.000003 0.000001 
